<svg width="270" height="130" viewBox="0 0 270 130" fill="none" xmlns="http://www.w3.org/2000/svg">
<path d="M85.5343 124.244C84.6709 123.545 83.617 123.164 82.6647 123.164C80.7981 123.164 79.3379 124.599 79.3379 126.365C79.3379 128.13 80.7854 129.565 82.7155 129.565C83.6551 129.565 84.7598 129.209 85.547 128.625V125.92H82.4869V127.012H84.3027V128.028C83.9217 128.282 83.3123 128.435 82.7663 128.435C81.4203 128.435 80.7092 127.431 80.7092 126.377C80.7092 125.247 81.5092 124.32 82.6647 124.32C83.2869 124.32 84.1122 124.599 84.6455 125.082L85.5216 124.256L85.5343 124.244Z" fill="#F2EDE4"/>
<path d="M89.3069 126.352C89.3069 125.234 90.1957 124.307 91.3258 124.307C92.4559 124.307 93.3828 125.234 93.3828 126.352C93.3828 127.47 92.4813 128.435 91.3258 128.435C90.1703 128.435 89.3069 127.495 89.3069 126.352ZM87.9102 126.352C87.9102 128.143 89.4085 129.565 91.3131 129.565C93.2178 129.565 94.7542 128.143 94.7542 126.352C94.7542 124.561 93.2178 123.164 91.3131 123.164C89.4085 123.164 87.9102 124.599 87.9102 126.352Z" fill="#F2EDE4"/>
<path d="M97.3066 123.342V129.387H102.17V128.244H98.6272V123.342H97.3066Z" fill="#F2EDE4"/>
<path d="M105.697 128.244V124.498H107.169C107.881 124.498 108.198 124.676 108.515 124.981C108.846 125.323 109.023 125.806 109.023 126.378C109.023 126.987 108.82 127.47 108.465 127.825C108.147 128.105 107.868 128.257 107.169 128.257H105.697V128.244ZM107.208 129.387C108.35 129.387 108.998 129.083 109.519 128.587C110.077 128.029 110.382 127.241 110.382 126.365C110.382 125.489 110.09 124.752 109.569 124.206C109.036 123.66 108.312 123.342 107.208 123.342H104.376V129.375H107.208V129.387Z" fill="#F2EDE4"/>
<path d="M119.081 128.092C118.649 128.346 118.268 128.447 117.976 128.447C117.519 128.447 116.935 128.231 116.935 127.584C116.935 127.088 117.29 126.783 117.646 126.606L119.093 128.092H119.081ZM120.414 123.989C120.02 123.799 119.385 123.532 118.7 123.532C117.671 123.532 116.782 124.129 116.782 125.082C116.782 125.386 116.871 125.64 117.049 125.907C116.249 126.212 115.627 126.733 115.627 127.685C115.627 128.993 116.795 129.527 117.798 129.527C118.395 129.527 119.144 129.336 119.83 128.866L120.338 129.387H121.976L120.744 128.104C121.15 127.685 121.569 127.177 122.001 126.517L121.023 126.034C120.681 126.58 120.338 127.012 120.02 127.355L118.89 126.187C118.712 126.009 118.103 125.475 118.103 125.082C118.103 124.866 118.293 124.65 118.7 124.65C119.106 124.65 119.601 124.84 119.868 124.993L120.427 124.002L120.414 123.989Z" fill="#F2EDE4"/>
<path d="M128.642 128.244V124.498H130.115C130.826 124.498 131.143 124.676 131.448 124.981C131.778 125.323 131.956 125.806 131.956 126.378C131.956 126.987 131.753 127.47 131.397 127.825C131.08 128.105 130.8 128.257 130.102 128.257H128.629L128.642 128.244ZM130.166 129.387C131.296 129.387 131.956 129.083 132.477 128.587C133.035 128.029 133.34 127.241 133.34 126.365C133.34 125.489 133.048 124.752 132.527 124.206C131.994 123.66 131.27 123.342 130.166 123.342H127.334V129.375H130.166V129.387Z" fill="#F2EDE4"/>
<path d="M137.228 123.342H135.907V129.375H137.228V123.342Z" fill="#F2EDE4"/>
<path d="M142.7 124.93H142.751L143.665 127.063H141.786L142.7 124.93ZM139.398 129.387H140.795L141.341 128.117H144.135L144.693 129.387H146.141L143.347 123.355H142.205L139.411 129.387H139.398Z" fill="#F2EDE4"/>
<path d="M154.76 129.387V123.342H153.528L151.56 126.657H151.547L149.567 123.342H148.297V129.387H149.579V125.882H149.63L151.319 128.702H151.687L153.376 125.882H153.427V129.387H154.76Z" fill="#F2EDE4"/>
<path d="M158.688 126.352C158.688 125.234 159.577 124.307 160.707 124.307C161.837 124.307 162.764 125.234 162.764 126.352C162.764 127.47 161.862 128.435 160.707 128.435C159.551 128.435 158.688 127.495 158.688 126.352ZM157.304 126.352C157.304 128.143 158.802 129.565 160.707 129.565C162.611 129.565 164.148 128.143 164.148 126.352C164.148 124.561 162.611 123.164 160.707 123.164C158.802 123.164 157.304 124.599 157.304 126.352Z" fill="#F2EDE4"/>
<path d="M170.915 123.342V127.089H170.902L167.829 123.342H166.687V129.387H168.02V125.654H168.032L171.093 129.387H172.235V123.342H170.915Z" fill="#F2EDE4"/>
<path d="M176.552 128.244V124.498H178.025C178.736 124.498 179.053 124.676 179.358 124.981C179.688 125.323 179.866 125.806 179.866 126.378C179.866 126.987 179.663 127.47 179.307 127.825C178.99 128.105 178.711 128.257 178.012 128.257H176.539L176.552 128.244ZM178.063 129.387C179.193 129.387 179.853 129.083 180.374 128.587C180.933 128.029 181.237 127.241 181.237 126.365C181.237 125.489 180.945 124.752 180.425 124.206C179.891 123.66 179.168 123.342 178.063 123.342H175.231V129.375H178.063V129.387Z" fill="#F2EDE4"/>
<path d="M188.816 123.977C188.296 123.622 187.242 123.164 185.985 123.164C184.842 123.164 183.496 123.621 183.496 125.082C183.496 126.619 185.045 126.758 186.366 126.847C187.267 126.923 187.89 127.05 187.89 127.635C187.89 128.219 187.28 128.498 186.518 128.498C185.299 128.498 184.436 127.889 183.928 127.482L183.179 128.384C183.877 128.955 184.931 129.578 186.493 129.578C187.966 129.578 189.21 128.994 189.21 127.508C189.21 125.844 187.496 125.717 186.391 125.641C185.604 125.577 184.817 125.539 184.817 125.006C184.817 124.472 185.35 124.269 185.959 124.269C186.963 124.269 187.712 124.65 188.08 124.917L188.842 123.99L188.816 123.977Z" fill="#F2EDE4"/>
<path d="M12.384 102.362C20.9168 102.362 23.8499 97.2308 23.8499 92.6715V77.7109H19.0502V92.2016C19.0502 96.0243 17.7043 99.3771 12.1554 99.3771C7.35568 99.3771 4.98122 95.3639 4.0035 93.7891L0.879883 96.2529C1.57825 97.5102 4.61299 102.362 12.384 102.362Z" fill="#F2EDE4"/>
<path d="M35.0361 101.752H57.8665V98.8183H39.8739V90.7538H49.5749V87.909H39.8739V80.5938H56.8888V77.7109H35.0361V101.752Z" fill="#F2EDE4"/>
<path d="M73.2819 101.752H76.2278L83.2623 83.718L90.246 101.752H93.1792L102.41 77.7109H98.8169L92.3919 95.2369L85.8653 77.7109H82.4242L75.6691 95.2369L69.3711 77.7109H64.2539L73.2819 101.752Z" fill="#F2EDE4"/>
<path d="M110.65 101.752H133.481V98.8183H115.501V90.7538H125.189V87.909H115.501V80.5938H132.503V77.7109H110.65V101.752Z" fill="#F2EDE4"/>
<path d="M141.734 101.752H161.162V98.8183H146.572V77.7109H141.734V101.752Z" fill="#F2EDE4"/>
<path d="M189.35 99.987C182.875 99.987 179.104 95.5166 179.104 89.7381C179.104 83.9596 182.875 79.4893 189.35 79.4893C195.826 79.4893 199.458 84.0104 199.458 89.7381C199.458 95.4658 195.776 99.987 189.35 99.987ZM189.35 102.59C197.883 102.59 204.816 96.8628 204.816 89.7254C204.816 82.588 197.871 76.8223 189.35 76.8223C180.83 76.8223 173.885 82.6007 173.885 89.7254C173.885 96.8501 180.868 102.59 189.35 102.59Z" fill="#F2EDE4"/>
<path d="M212.879 101.752H216.231V83.6291L232.636 101.752H236.23V77.7109H232.916V95.1861L217.209 77.7109H212.879V101.752Z" fill="#F2EDE4"/>
<path d="M246.758 101.752H269.588V98.8183H251.596V90.7538H261.297V87.909H251.596V80.5938H268.61V77.7109H246.758V101.752Z" fill="#F2EDE4"/>
<path d="M159.928 43.218C157.947 46.9898 156.83 53.9113 147.18 54.2923H133.2C134.342 53.5938 135.409 52.7683 136.425 51.8285C147.954 43.4847 151.217 25.311 159.814 17.9323C162.036 16.2051 164.372 15.1765 166.924 14.7828C167.496 14.7193 168.283 14.6558 169.375 14.6177L169.274 14.5923C169.274 14.5923 169.337 14.5923 169.375 14.5923V12.2428C156.843 12.2428 150.76 15.6717 145.402 18.6943C143.231 19.9135 141.174 21.0692 138.812 21.9201C143.18 13.6525 147.18 5.67688 153.224 3.18769C154.265 2.79399 155.357 2.53999 156.512 2.41299C156.639 2.41299 156.779 2.40029 156.919 2.38759C156.957 2.38759 156.995 2.38759 157.033 2.36219C157.35 2.33679 157.668 2.32409 157.998 2.32409V0H118.178L118.077 0.241299L112.553 12.6111L114.851 13.4366C116.845 9.63927 117.95 2.67969 127.74 2.34949H149.656C149.313 2.55269 148.97 2.78129 148.64 3.00989C141.542 6.84528 137.326 15.0749 133.212 22.9996C127.701 23.0758 121.746 20.6374 121.746 20.6374C121.695 20.5866 120.515 24.422 120.515 24.422C124.019 24.93 127.371 25.8444 131.866 25.5777C127.866 33.1469 123.664 39.9414 116.756 41.7067C115.702 41.9353 114.61 42.0496 113.48 42.0496C107.119 42.0496 104.173 39.2175 102.827 36.8426C102.598 36.4362 102.408 36.0298 102.23 35.598C101.049 32.169 102.293 28.8035 104.274 26.9493L102.306 25.8571L100.935 25.0316C98.6365 28.8797 98.573 34.0994 100.795 37.9983C103.131 42.1131 107.639 44.3864 113.48 44.3864C113.48 44.3864 114.826 44.3483 115.461 44.2848C126.063 43.4339 132.095 34.3407 137.263 24.8411C140.882 23.9521 143.675 22.3646 146.557 20.7517C150.062 18.7705 153.643 16.7512 159.039 15.5955C157.998 16.3448 157.071 17.2465 156.081 18.1228C145.567 27.4573 140.717 44.742 132.26 52.146C130.101 53.5176 127.676 54.305 124.87 54.305H119.588C114.801 54.1653 110.864 53.1747 106.725 52.1079C106.573 53.1874 106.369 55.7782 106.192 56.7434L117.137 56.6418H148.005H156.614H156.627L157.655 54.305L162.239 44.0435L159.941 43.218H159.928Z" fill="#F2EDE4"/>
</svg>
